<svg width="20" height="20" viewBox="0 0 20 20" fill="none" xmlns="http://www.w3.org/2000/svg">
<rect x="0.5" y="0.5" width="19" height="19" rx="1.5" fill="white" stroke="#E0E0E0"/>
<path d="M8.49998 11.2001L12.925 6.7751C13.0625 6.6376 13.2375 6.56885 13.45 6.56885C13.6625 6.56885 13.8375 6.6376 13.975 6.7751C14.1125 6.9126 14.1812 7.0876 14.1812 7.3001C14.1812 7.5126 14.1125 7.6876 13.975 7.8251L9.02498 12.7751C8.87498 12.9251 8.69998 13.0001 8.49998 13.0001C8.29998 13.0001 8.12498 12.9251 7.97498 12.7751L6.02498 10.8251C5.88748 10.6876 5.81873 10.5126 5.81873 10.3001C5.81873 10.0876 5.88748 9.9126 6.02498 9.7751C6.16248 9.6376 6.33748 9.56885 6.54998 9.56885C6.76248 9.56885 6.93748 9.6376 7.07498 9.7751L8.49998 11.2001Z" fill="#FF9B04"/>
</svg>
