<svg width="14" height="8" viewBox="0 0 14 8" fill="none" xmlns="http://www.w3.org/2000/svg">
  <g clip-path="url(#clip0_47_266)">
    <path d="M0.630024 0.766601C0.805024 0.599934 1.01223 0.516601 1.25163 0.516601C1.49102 0.516601 1.69799 0.599934 1.87252 0.766601L7.00002 5.64993L12.145 0.749935C12.3084 0.594379 12.5125 0.516602 12.7575 0.516602C13.0025 0.516602 13.2125 0.599935 13.3875 0.766602C13.5625 0.933268 13.65 1.1306 13.65 1.3586C13.65 1.5866 13.5625 1.78371 13.3875 1.94993L7.49002 7.54994C7.42002 7.6166 7.34419 7.66393 7.26252 7.69193C7.18086 7.71993 7.09336 7.73371 7.00002 7.73327C6.90669 7.73327 6.81919 7.71927 6.73752 7.69127C6.65586 7.66327 6.58002 7.61616 6.51002 7.54994L0.612525 1.93327C0.449191 1.77771 0.367524 1.58593 0.367524 1.35793C0.367524 1.12993 0.455025 0.932823 0.630024 0.766601Z" fill="#222222" />
  </g>
  <defs>
    <clipPath id="clip0_47_266">
      <rect width="8" height="14" fill="white" transform="translate(14) rotate(90)" />
    </clipPath>
  </defs>
</svg>