<svg width="105" height="108" viewBox="0 0 105 108" fill="none" xmlns="http://www.w3.org/2000/svg">
<circle cx="50" cy="58" r="50" fill="#F5F5F5"/>
<g clip-path="url(#clip0_4402_1539)">
<path d="M35.7104 61.4219V65.7875C33.1604 66.5499 32.7303 66.2399 22.9954 67.0081V60.915C25.9948 62.0324 32.4413 61.6911 35.7104 61.4219Z" fill="#FF9B04"/>
<path d="M22.9954 68.0426V75.0148C22.9954 75.0148 32.43 73.0701 34.5342 74.746L39.335 77.5699C40.8166 78.4304 42.5243 77.7669 43.157 76.8664C43.157 76.8664 44.4899 77.3938 45.573 76.6181C45.6772 76.6286 49.3129 78.0317 49.5718 76.432C49.5718 76.432 54.5495 76.3804 54.6745 75.4181C54.6745 75.4181 55.0598 74.1665 50.9462 74.1665L44.4168 70.0596C44.4168 70.0596 44.0002 68.7871 44.844 69.0043C44.844 69.0043 50.6131 71.3527 51.5818 69.4802C51.5818 69.4802 52.1338 68.4559 50.072 67.7938C49.1349 67.6181 43.6051 64.4215 36.4197 66.6663C33.4825 67.577 32.9722 67.2977 22.9952 68.0424L22.9954 68.0426Z" fill="#FF9B04"/>
<path d="M35.4064 41.0756C35.4064 39.933 36.3387 39.0068 37.4889 39.0068H70.8985C72.0488 39.0068 72.9811 39.933 72.9811 41.0756V45.6746H35.406L35.4064 41.0756Z" fill="#FF9B04"/>
<path d="M47.8638 71.0016C49.5738 71.3732 51.6818 71.4894 52.5084 69.9568C53.0144 68.9516 52.5709 67.5063 50.3946 66.8121C48.4268 65.9239 44.7893 64.8364 41.9178 64.8364C41.0639 64.8364 38.9708 64.9089 36.7527 65.4985V46.7129H71.6388V71.7883C71.6388 73.1124 70.5452 74.1988 69.2122 74.1988H55.2373C54.5814 73.5057 53.3003 73.1745 51.2489 73.1435L47.8638 71.0016ZM56.4241 69.574C56.4241 70.2154 56.9449 70.7325 57.5802 70.7325H66.9842C67.63 70.7325 68.1508 70.2151 68.1508 69.574V63.8432C68.1508 63.2017 67.63 62.6847 66.9842 62.6847H57.5802C56.945 62.6847 56.4241 63.202 56.4241 63.8432V69.574Z" fill="#FF9B04"/>
<path d="M66.5287 64.8301H58.0385V65.9853H66.5287V64.8301Z" fill="#FF9B04"/>
<path d="M66.5287 67.4346H58.0385V68.5898H66.5287V67.4346Z" fill="#FF9B04"/>
</g>
<g filter="url(#filter0_di_4402_1539)">
<circle cx="82" cy="19" r="15" fill="white"/>
</g>
<path d="M81.5065 22.796C80.8532 23.72 79.9245 24.182 78.7205 24.182C77.5165 24.182 76.5879 23.72 75.9345 22.796C75.2719 21.8627 74.9405 20.6307 74.9405 19.1C74.9405 17.5693 75.2719 16.3373 75.9345 15.404C76.5879 14.48 77.5165 14.018 78.7205 14.018C79.9245 14.018 80.8532 14.48 81.5065 15.404C82.1692 16.3373 82.5005 17.5693 82.5005 19.1C82.5005 20.6307 82.1692 21.8627 81.5065 22.796ZM76.2425 19.1C76.2425 20.3133 76.4572 21.2513 76.8865 21.914C77.3159 22.5767 77.9272 22.908 78.7205 22.908C79.5139 22.908 80.1252 22.5767 80.5545 21.914C80.9932 21.2513 81.2125 20.3133 81.2125 19.1C81.2125 17.8867 80.9932 16.9487 80.5545 16.286C80.1252 15.614 79.5139 15.278 78.7205 15.278C77.9272 15.278 77.3159 15.6093 76.8865 16.272C76.4572 16.9347 76.2425 17.8773 76.2425 19.1ZM85.4399 18.022H86.8679C87.7919 18.022 88.5712 18.2973 89.2059 18.848C89.8499 19.3987 90.1719 20.15 90.1719 21.102C90.1719 22.0633 89.8452 22.8147 89.1919 23.356C88.5292 23.9067 87.7359 24.182 86.8119 24.182C86.0466 24.182 85.3699 24 84.7819 23.636C84.2032 23.2627 83.8019 22.7447 83.5779 22.082L84.6839 21.452C84.8146 21.9187 85.0666 22.278 85.4399 22.53C85.8132 22.782 86.2706 22.908 86.8119 22.908C87.4372 22.908 87.9366 22.7493 88.3099 22.432C88.6926 22.1053 88.8839 21.662 88.8839 21.102C88.8839 20.542 88.6926 20.0987 88.3099 19.772C87.9366 19.4453 87.4466 19.282 86.8399 19.282H84.0679L84.4319 14.2H89.7939V15.418H85.6079L85.4399 18.022Z" fill="#777777"/>
<defs>
<filter id="filter0_di_4402_1539" x="63" y="0" width="42" height="42" filterUnits="userSpaceOnUse" color-interpolation-filters="sRGB">
<feFlood flood-opacity="0" result="BackgroundImageFix"/>
<feColorMatrix in="SourceAlpha" type="matrix" values="0 0 0 0 0 0 0 0 0 0 0 0 0 0 0 0 0 0 127 0" result="hardAlpha"/>
<feOffset dx="2" dy="2"/>
<feGaussianBlur stdDeviation="3"/>
<feComposite in2="hardAlpha" operator="out"/>
<feColorMatrix type="matrix" values="0 0 0 0 0 0 0 0 0 0 0 0 0 0 0 0 0 0 0.07 0"/>
<feBlend mode="normal" in2="BackgroundImageFix" result="effect1_dropShadow_4402_1539"/>
<feBlend mode="normal" in="SourceGraphic" in2="effect1_dropShadow_4402_1539" result="shape"/>
<feColorMatrix in="SourceAlpha" type="matrix" values="0 0 0 0 0 0 0 0 0 0 0 0 0 0 0 0 0 0 127 0" result="hardAlpha"/>
<feOffset dx="1" dy="1"/>
<feGaussianBlur stdDeviation="0.5"/>
<feComposite in2="hardAlpha" operator="arithmetic" k2="-1" k3="1"/>
<feColorMatrix type="matrix" values="0 0 0 0 0 0 0 0 0 0 0 0 0 0 0 0 0 0 0.04 0"/>
<feBlend mode="normal" in2="shape" result="effect2_innerShadow_4402_1539"/>
</filter>
<clipPath id="clip0_4402_1539">
<rect width="50" height="39" fill="white" transform="matrix(-1 0 0 1 73 39)"/>
</clipPath>
</defs>
</svg>
