<svg width="105" height="108" viewBox="0 0 105 108" fill="none" xmlns="http://www.w3.org/2000/svg">
<circle cx="50" cy="58" r="50" fill="#F5F5F5"/>
<g clip-path="url(#clip0_4402_1538)">
<path d="M41.9307 59.8951H43.4405V39.1094H41.3579V59.9574C41.5453 59.9156 41.7327 59.8949 41.9307 59.8949L41.9307 59.8951Z" fill="#FF9B04"/>
<path d="M59.1758 59.8954C59.3737 59.8954 59.5717 59.9161 59.7591 59.9578V39.1099H57.6765V59.8955L59.1758 59.8954Z" fill="#FF9B04"/>
<path d="M57.5096 35.5321C57.1591 35.8826 57.1591 36.4507 57.5096 36.8011C57.1591 37.1516 57.1591 37.72 57.5096 38.0705H59.9242C60.2747 37.72 60.2747 37.1519 59.9242 36.8011C60.2747 36.4506 60.2747 35.8826 59.9242 35.5321C60.2747 35.1816 60.2747 34.6136 59.9242 34.2631C60.2747 33.9126 60.2747 33.3446 59.9242 32.9941H57.5092C57.1587 33.3446 57.1587 33.9127 57.5092 34.2631C57.1591 34.6136 57.1591 35.1817 57.5096 35.5321Z" fill="#FF9B04"/>
<path d="M41.1888 35.532C40.8383 35.8825 40.8383 36.4505 41.1888 36.801C40.8383 37.1515 40.8383 37.7199 41.1888 38.0704H43.6034C43.9539 37.7199 43.9539 37.1518 43.6034 36.801C43.9539 36.4505 43.9539 35.8824 43.6034 35.532C43.9539 35.1815 43.9539 34.6135 43.6034 34.263C43.9539 33.9125 43.9539 33.3445 43.6034 32.994L41.1888 32.9937C40.8383 33.3441 40.8383 33.9122 41.1891 34.2626C40.8383 34.6135 40.8383 35.1815 41.1888 35.532Z" fill="#FF9B04"/>
<path d="M73.3282 64.1334H68.8295V66.1953H63.2166V64.1334H62.1957V69.8818C62.2374 68.8819 63.0601 68.0904 64.0701 68.0904H67.9753C69.0166 68.0904 69.8603 68.9338 69.8603 69.9754C69.8603 71.0065 69.0166 71.8499 67.9753 71.8499H64.0701C63.0601 71.8499 62.2374 71.0585 62.1957 70.0691V81.0036C62.1957 81.7638 61.9145 82.4509 61.4562 82.9823H73.3279C74.2548 82.9823 75.0044 82.2221 75.0044 81.3058V65.8097C75.0048 64.8828 74.2547 64.1328 73.3282 64.1328L73.3282 64.1334Z" fill="#FF9B04"/>
<path d="M62.1854 69.976C62.1854 70.0073 62.1854 70.0385 62.196 70.0697V69.8823C62.1854 69.9136 62.1854 69.9448 62.1854 69.976Z" fill="#FF9B04"/>
<path d="M64.0665 70.8072H67.9812C68.445 70.8072 68.8234 70.436 68.8234 69.9722C68.8234 69.5083 68.4453 69.1299 67.9812 69.1299H64.0665C63.6027 69.1299 63.2242 69.508 63.2242 69.9722C63.2242 70.436 63.6023 70.8072 64.0665 70.8072Z" fill="#FF9B04"/>
<path d="M38.9107 64.1333H36.8071V66.1952H31.1836V64.1333H26.6952C25.7683 64.1333 25.0187 64.883 25.0187 65.8098V81.3059C25.0187 82.2222 25.7683 82.9824 26.6952 82.9824H39.6501C39.1917 82.4514 38.9106 81.7639 38.9106 81.0037L38.9107 64.1333ZM35.9531 71.8499H32.0375C31.0063 71.8499 30.163 71.0062 30.163 69.9754C30.163 68.9341 31.0063 68.0904 32.0375 68.0904L35.9531 68.0908C36.9944 68.0908 37.8381 68.9342 37.8381 69.9758C37.8381 71.0066 36.9944 71.8499 35.9531 71.8499Z" fill="#FF9B04"/>
<path d="M35.9567 69.1299H32.0421C31.5783 69.1299 31.1998 69.508 31.1998 69.9722C31.1998 70.436 31.5779 70.8072 32.0421 70.8072H35.9567C36.4206 70.8072 36.799 70.436 36.799 69.9722C36.7986 69.5083 36.4206 69.1299 35.9567 69.1299Z" fill="#FF9B04"/>
<path d="M59.1758 60.9365H54.9165V64.4145H46.2003V60.9365H41.9305C40.8475 60.9365 39.9518 61.8216 39.9518 62.9152V81.0036C39.9518 82.0866 40.8474 82.9823 41.9305 82.9823H46.2003V79.4937H54.9165V82.9823H59.1758C60.2694 82.9823 61.1545 82.0866 61.1545 81.0036V62.9152C61.1545 61.8216 60.2694 60.9365 59.1758 60.9365ZM52.8651 69.6632H48.2517C47.1269 69.6632 46.2105 68.7468 46.2105 67.6325C46.2105 66.5076 47.1269 65.6018 48.2517 65.6018H52.8651C53.99 65.6018 54.9063 66.5076 54.9063 67.6325C54.9063 68.7468 53.99 69.6632 52.8651 69.6632Z" fill="#FF9B04"/>
<path d="M52.8662 66.6406H48.2484C47.7011 66.6406 47.255 67.087 47.255 67.634C47.255 68.1814 47.7014 68.6191 48.2484 68.6191H52.8662C53.4135 68.6191 53.8596 68.1814 53.8596 67.634C53.8599 67.087 53.4135 66.6406 52.8662 66.6406Z" fill="#FF9B04"/>
<path d="M47.2417 60.9321H53.8734V63.3692H47.2417V60.9321Z" fill="#FF9B04"/>
<path d="M47.2417 80.5396H53.8734V82.9766H47.2417V80.5396Z" fill="#FF9B04"/>
</g>
<g filter="url(#filter0_di_4402_1538)">
<circle cx="82" cy="19" r="15" fill="white"/>
</g>
<path d="M81.2263 22.796C80.5729 23.72 79.6443 24.182 78.4403 24.182C77.2363 24.182 76.3076 23.72 75.6543 22.796C74.9916 21.8627 74.6603 20.6307 74.6603 19.1C74.6603 17.5693 74.9916 16.3373 75.6543 15.404C76.3076 14.48 77.2363 14.018 78.4403 14.018C79.6443 14.018 80.5729 14.48 81.2263 15.404C81.8889 16.3373 82.2203 17.5693 82.2203 19.1C82.2203 20.6307 81.8889 21.8627 81.2263 22.796ZM75.9623 19.1C75.9623 20.3133 76.1769 21.2513 76.6063 21.914C77.0356 22.5767 77.6469 22.908 78.4403 22.908C79.2336 22.908 79.8449 22.5767 80.2743 21.914C80.7129 21.2513 80.9323 20.3133 80.9323 19.1C80.9323 17.8867 80.7129 16.9487 80.2743 16.286C79.8449 15.614 79.2336 15.278 78.4403 15.278C77.6469 15.278 77.0356 15.6093 76.6063 16.272C76.1769 16.9347 75.9623 17.8773 75.9623 19.1ZM89.4846 20.92H90.6746V22.138H89.4846V24H88.1826V22.138H83.1846V20.92L86.6986 14.2H88.0986L84.5846 20.92H88.1826V18.148H89.4846V20.92Z" fill="#777777"/>
<defs>
<filter id="filter0_di_4402_1538" x="63" y="0" width="42" height="42" filterUnits="userSpaceOnUse" color-interpolation-filters="sRGB">
<feFlood flood-opacity="0" result="BackgroundImageFix"/>
<feColorMatrix in="SourceAlpha" type="matrix" values="0 0 0 0 0 0 0 0 0 0 0 0 0 0 0 0 0 0 127 0" result="hardAlpha"/>
<feOffset dx="2" dy="2"/>
<feGaussianBlur stdDeviation="3"/>
<feComposite in2="hardAlpha" operator="out"/>
<feColorMatrix type="matrix" values="0 0 0 0 0 0 0 0 0 0 0 0 0 0 0 0 0 0 0.07 0"/>
<feBlend mode="normal" in2="BackgroundImageFix" result="effect1_dropShadow_4402_1538"/>
<feBlend mode="normal" in="SourceGraphic" in2="effect1_dropShadow_4402_1538" result="shape"/>
<feColorMatrix in="SourceAlpha" type="matrix" values="0 0 0 0 0 0 0 0 0 0 0 0 0 0 0 0 0 0 127 0" result="hardAlpha"/>
<feOffset dx="1" dy="1"/>
<feGaussianBlur stdDeviation="0.5"/>
<feComposite in2="hardAlpha" operator="arithmetic" k2="-1" k3="1"/>
<feColorMatrix type="matrix" values="0 0 0 0 0 0 0 0 0 0 0 0 0 0 0 0 0 0 0.04 0"/>
<feBlend mode="normal" in2="shape" result="effect2_innerShadow_4402_1538"/>
</filter>
<clipPath id="clip0_4402_1538">
<rect width="50" height="50" fill="white" transform="translate(25 33)"/>
</clipPath>
</defs>
</svg>
