<svg width="105" height="108" viewBox="0 0 105 108" fill="none" xmlns="http://www.w3.org/2000/svg">
<circle cx="50" cy="58" r="50" fill="#F5F5F5"/>
<g clip-path="url(#clip0_4402_1535)">
<path d="M33.315 55.5062C33.6138 53.0323 34.1474 50.6675 34.9057 48.4776C37.1233 38.8612 42.6376 36.1774 50.071 35.8521L50.1479 35.849L50.2253 35.8521C58.6502 36.2196 63.3324 40.0583 65.2772 48.351C66.092 50.6679 66.6528 53.1836 66.9516 55.8156C67.6421 54.4065 67.9009 52.2098 68.0759 50.7147L68.0903 50.5919C68.0797 49.1907 67.6218 48.5745 67.1373 47.923C66.7216 47.3636 66.25 46.7295 66.1923 45.7499C65.8161 39.3087 60.6083 33.0459 50.1213 33.0459C39.1486 33.0459 34.4315 39.2574 34.0517 45.7494C33.9941 46.7363 33.5021 47.3647 33.0678 47.9192C32.547 48.585 32.0556 49.2133 32.1484 50.7479C32.2893 53.0864 32.7839 54.5672 33.3154 55.5061L33.315 55.5062Z" fill="#FF9B04"/>
<path d="M50.0239 67.3768C50.0223 67.3768 50.0196 67.3763 50.018 67.3763C50.0164 67.3763 50.0138 67.3768 50.0122 67.3768L50.0031 67.3763C48.6349 67.2735 46.3874 66.2239 44.3358 64.3999V64.8359C44.3358 64.8359 48.635 68.877 50.0031 68.9799L50.0122 68.9804C50.0138 68.9804 50.0164 68.9793 50.018 68.9793C50.0196 68.9793 50.0223 68.9804 50.0239 68.9804L50.033 68.9799C51.4006 68.8771 55.6997 64.8359 55.6997 64.8359V64.3999C53.648 66.2239 51.401 67.2735 50.033 67.3763L50.0239 67.3768Z" fill="#FF9B04"/>
<path d="M71.0426 74.5872C70.2807 73.652 67.0049 71.8502 65.9276 71.2825C65.0323 68.1227 64.7142 65.1516 64.4229 59.7034C64.4255 59.6328 64.4293 59.5648 64.4319 59.4931C64.4255 59.4989 64.4191 59.5041 64.4127 59.5094C64.4106 59.4683 64.4084 59.4298 64.4058 59.3882L62.5751 60.9686C60.907 62.19 59.1547 63.1647 57.3053 63.6477L56.9569 67.7659C56.9569 72.8103 53.8509 75.105 50.0938 75.105C46.3581 75.105 43.2681 72.815 43.2585 67.7807L42.9074 62.5381C42.0835 61.5144 41.3637 60.0025 40.8478 58.7003C41.2896 50.2447 49.3928 51.4339 54.893 46.4787C59.5352 54.0645 59.461 57.5258 59.4013 58.8048C57.3277 60.0879 55.5258 60.391 52.917 60.4833C52.6476 59.9356 52.0841 59.5544 51.4262 59.5544C50.5079 59.5544 49.7635 60.2898 49.7635 61.1971C49.7635 62.1044 50.5079 62.8397 51.4262 62.8397C51.4833 62.8397 51.5377 62.8287 51.5937 62.8229C52.1999 62.7622 52.7105 62.3864 52.9464 61.8582C58.0672 61.67 60.6279 60.4169 64.4656 56.9297C64.4597 55.3462 64.3733 53.7667 64.1817 52.2016C63.1353 43.2931 58.2572 38.2691 50.1502 37.9155C41.976 38.2735 37.0819 43.2661 36.0326 52.2043C35.9125 53.1901 35.817 54.9455 35.7738 55.8428C35.4184 63.1676 35.1671 67.5494 34.1074 71.2868C31.2478 72.7923 29.3808 74.0744 28.9684 74.6169C28.518 75.2189 27.5372 78.0892 26.9962 82.9787H59.1886L73.0399 82.9792" fill="#FF9B04"/>
</g>
<g filter="url(#filter0_di_4402_1535)">
<circle cx="82" cy="19" r="15" fill="white"/>
</g>
<path d="M82.4284 22.796C81.7751 23.72 80.8464 24.182 79.6424 24.182C78.4384 24.182 77.5098 23.72 76.8564 22.796C76.1938 21.8627 75.8624 20.6307 75.8624 19.1C75.8624 17.5693 76.1938 16.3373 76.8564 15.404C77.5098 14.48 78.4384 14.018 79.6424 14.018C80.8464 14.018 81.7751 14.48 82.4284 15.404C83.0911 16.3373 83.4224 17.5693 83.4224 19.1C83.4224 20.6307 83.0911 21.8627 82.4284 22.796ZM77.1644 19.1C77.1644 20.3133 77.3791 21.2513 77.8084 21.914C78.2378 22.5767 78.8491 22.908 79.6424 22.908C80.4358 22.908 81.0471 22.5767 81.4764 21.914C81.9151 21.2513 82.1344 20.3133 82.1344 19.1C82.1344 17.8867 81.9151 16.9487 81.4764 16.286C81.0471 15.614 80.4358 15.278 79.6424 15.278C78.8491 15.278 78.2378 15.6093 77.8084 16.272C77.3791 16.9347 77.1644 17.8773 77.1644 19.1ZM83.9733 15.096L86.5493 14.2H87.6693V24H86.3813V15.6L84.2953 16.216L83.9733 15.096Z" fill="#777777"/>
<defs>
<filter id="filter0_di_4402_1535" x="63" y="0" width="42" height="42" filterUnits="userSpaceOnUse" color-interpolation-filters="sRGB">
<feFlood flood-opacity="0" result="BackgroundImageFix"/>
<feColorMatrix in="SourceAlpha" type="matrix" values="0 0 0 0 0 0 0 0 0 0 0 0 0 0 0 0 0 0 127 0" result="hardAlpha"/>
<feOffset dx="2" dy="2"/>
<feGaussianBlur stdDeviation="3"/>
<feComposite in2="hardAlpha" operator="out"/>
<feColorMatrix type="matrix" values="0 0 0 0 0 0 0 0 0 0 0 0 0 0 0 0 0 0 0.07 0"/>
<feBlend mode="normal" in2="BackgroundImageFix" result="effect1_dropShadow_4402_1535"/>
<feBlend mode="normal" in="SourceGraphic" in2="effect1_dropShadow_4402_1535" result="shape"/>
<feColorMatrix in="SourceAlpha" type="matrix" values="0 0 0 0 0 0 0 0 0 0 0 0 0 0 0 0 0 0 127 0" result="hardAlpha"/>
<feOffset dx="1" dy="1"/>
<feGaussianBlur stdDeviation="0.5"/>
<feComposite in2="hardAlpha" operator="arithmetic" k2="-1" k3="1"/>
<feColorMatrix type="matrix" values="0 0 0 0 0 0 0 0 0 0 0 0 0 0 0 0 0 0 0.04 0"/>
<feBlend mode="normal" in2="shape" result="effect2_innerShadow_4402_1535"/>
</filter>
<clipPath id="clip0_4402_1535">
<rect width="46" height="50" fill="white" transform="translate(27 33)"/>
</clipPath>
</defs>
</svg>
