<svg width="105" height="108" viewBox="0 0 105 108" fill="none" xmlns="http://www.w3.org/2000/svg">
<circle cx="50" cy="58" r="50" fill="#F5F5F5"/>
<g clip-path="url(#clip0_4402_1536)">
<path d="M57.2512 37.8874C57.2512 37.0089 56.5216 36.2918 55.6279 36.2918H52.8161C52.8161 34.4949 51.3405 33.0444 49.5123 33.0444C47.684 33.0444 46.2084 34.4949 46.2084 36.2918H43.3966C42.5029 36.2918 41.7733 37.0089 41.7733 37.8874V41.6423H57.2516L57.2512 37.8874Z" fill="#FF9B04"/>
<path d="M41.4696 58.2573C40.0841 58.2573 38.9529 59.3613 38.9529 60.7231C38.9529 62.085 40.0844 63.1967 41.4696 63.1967C42.8551 63.1967 43.9783 62.0846 43.9783 60.7231C43.9783 59.3613 42.8551 58.2573 41.4696 58.2573ZM43.2075 60.449L41.4941 62.1409C41.3303 62.2941 41.1254 62.3746 40.9121 62.3746C40.7072 62.3746 40.494 62.2941 40.3385 62.1409L39.4776 61.2947C39.1579 60.9805 39.1579 60.4727 39.4776 60.1584C39.7972 59.8442 40.3139 59.8442 40.6336 60.1584L40.9125 60.4326L42.0519 59.3126C42.3716 58.9984 42.8883 58.9984 43.208 59.3126C43.5276 59.6272 43.5276 60.1347 43.2075 60.449Z" fill="#FF9B04"/>
<path d="M41.4696 53.0683C42.8551 53.0683 43.9783 51.9562 43.9783 50.5947C43.9783 49.2411 42.8551 48.1289 41.4696 48.1289C40.0841 48.1289 38.9529 49.2411 38.9529 50.5947C38.9529 51.9565 40.0844 53.0683 41.4696 53.0683ZM39.4776 50.0309C39.7973 49.7167 40.3139 49.7167 40.6336 50.0309L40.9125 50.305L42.0519 49.1851C42.3716 48.8709 42.8883 48.8709 43.208 49.1851C43.5277 49.4993 43.5277 50.0149 43.208 50.3292L41.4946 52.0133C41.3308 52.1665 41.1258 52.247 40.9126 52.247C40.7076 52.247 40.4944 52.1665 40.3389 52.0133L39.478 51.1671C39.158 50.8526 39.1579 50.3451 39.4776 50.0309Z" fill="#FF9B04"/>
<path d="M41.4696 68.3853C40.0841 68.3853 38.9529 69.4892 38.9529 70.8511C38.9529 72.2129 40.0844 73.3169 41.4696 73.3169C42.8551 73.3169 43.9783 72.2129 43.9783 70.8511C43.9783 69.4892 42.8551 68.3853 41.4696 68.3853ZM42.9045 71.1252C43.2242 71.4394 43.2242 71.9473 42.9045 72.2615C42.7407 72.4225 42.5358 72.5034 42.3226 72.5034C42.1176 72.5034 41.9044 72.4229 41.7489 72.2615L41.47 71.9874L41.1911 72.2615C41.0273 72.4225 40.814 72.5034 40.6091 72.5034C40.3959 72.5034 40.1909 72.4229 40.0271 72.2615C39.7075 71.9473 39.7075 71.4395 40.0271 71.1252L40.306 70.8511L40.0271 70.577C39.7075 70.2627 39.7075 69.7549 40.0271 69.4407C40.3468 69.1265 40.8714 69.1265 41.1911 69.4407L41.47 69.7148L41.7489 69.4407C42.0686 69.1265 42.5853 69.1265 42.905 69.4407C43.2246 69.7549 43.2246 70.2627 42.905 70.577L42.626 70.8511L42.9045 71.1252Z" fill="#FF9B04"/>
<path d="M40.1333 42.4482H36.0837V79.0066H62.9397L62.9393 42.4482H58.8897V43.254H40.1332L40.1333 42.4482ZM41.4694 74.9288C39.1739 74.9288 37.3129 73.0995 37.3129 70.8515C37.3129 68.6034 39.1739 66.7742 41.4694 66.7742C43.7565 66.7742 45.6176 68.6034 45.6176 70.8515C45.6176 73.0995 43.7569 74.9288 41.4694 74.9288ZM41.4694 64.8082C39.1739 64.8082 37.3129 62.9711 37.3129 60.7227C37.3129 58.4746 39.1739 56.6454 41.4694 56.6454C43.7565 56.6454 45.6176 58.4746 45.6176 60.7227C45.6176 62.9711 43.7569 64.8082 41.4694 64.8082ZM47.2574 48.5964H60.8902C61.3413 48.5964 61.71 48.9588 61.71 49.4021C61.71 49.8532 61.3413 50.2079 60.8902 50.2079H47.2574C46.7985 50.2079 46.4376 49.8532 46.4376 49.4021C46.4376 48.9592 46.7981 48.5964 47.2574 48.5964ZM47.2574 50.9895H57.9308C58.3898 50.9895 58.7506 51.3441 58.7506 51.7952C58.7506 52.2385 58.3898 52.6009 57.9308 52.6009L47.2574 52.6013C46.7985 52.6013 46.4376 52.2389 46.4376 51.7956C46.4376 51.3441 46.7981 50.9895 47.2574 50.9895ZM47.2574 58.7252H60.8902C61.3413 58.7252 61.71 59.0876 61.71 59.5309C61.71 59.9742 61.3413 60.3366 60.8902 60.3366H47.2574C46.7985 60.3366 46.4376 59.9742 46.4376 59.5309C46.4376 59.0876 46.7981 58.7252 47.2574 58.7252ZM47.2574 61.1101H57.9308C58.3898 61.1101 58.7506 61.4725 58.7506 61.9158C58.7506 62.3669 58.3898 62.7215 57.9308 62.7215H47.2574C46.7985 62.7215 46.4376 62.3669 46.4376 61.9158C46.4376 61.4729 46.7981 61.1101 47.2574 61.1101ZM47.2574 68.8536H60.8902C61.3413 68.8536 61.71 69.216 61.71 69.6593C61.71 70.1026 61.3413 70.465 60.8902 70.465L47.2574 70.4654C46.7985 70.4654 46.4376 70.103 46.4376 69.6597C46.4376 69.2164 46.7981 68.8536 47.2574 68.8536ZM47.2574 71.2388H57.9308C58.3898 71.2388 58.7506 71.6013 58.7506 72.0446C58.7506 72.4879 58.3898 72.8503 57.9308 72.8503H47.2574C46.7985 72.8503 46.4376 72.4879 46.4376 72.0446C46.4376 71.6013 46.7981 71.2388 47.2574 71.2388ZM41.4694 46.5171C43.7565 46.5171 45.6176 48.3463 45.6176 50.5944C45.6176 52.8506 43.7565 54.6799 41.4694 54.6799C39.1739 54.6799 37.3129 52.8506 37.3129 50.5944C37.3132 48.3463 39.1743 46.5171 41.4694 46.5171Z" fill="#FF9B04"/>
<path d="M65.3672 38.4429H58.8907V40.8359H63.7601C64.2111 40.8359 64.5799 41.1984 64.5799 41.6417V79.8117C64.5799 80.255 64.2111 80.6174 63.7601 80.6174L35.2645 80.6178C34.8134 80.6178 34.4447 80.2553 34.4447 79.812L34.4443 41.6421C34.4443 41.1987 34.8131 40.8363 35.2641 40.8363H40.1334L40.1338 38.4429H33.6574C32.7474 38.4429 32.0179 39.1681 32.0179 40.0544V81.3915C32.0179 82.2859 32.7474 83.003 33.6574 83.003H65.3675C66.2775 83.003 67.0071 82.2859 67.0071 81.3915V40.0553C67.0071 39.1687 66.2775 38.4434 65.3675 38.4434L65.3672 38.4429Z" fill="#FF9B04"/>
</g>
<g filter="url(#filter0_di_4402_1536)">
<circle cx="82" cy="19" r="15" fill="white"/>
</g>
<path d="M81.6843 22.796C81.0309 23.72 80.1023 24.182 78.8983 24.182C77.6943 24.182 76.7656 23.72 76.1123 22.796C75.4496 21.8627 75.1183 20.6307 75.1183 19.1C75.1183 17.5693 75.4496 16.3373 76.1123 15.404C76.7656 14.48 77.6943 14.018 78.8983 14.018C80.1023 14.018 81.0309 14.48 81.6843 15.404C82.3469 16.3373 82.6783 17.5693 82.6783 19.1C82.6783 20.6307 82.3469 21.8627 81.6843 22.796ZM76.4203 19.1C76.4203 20.3133 76.6349 21.2513 77.0643 21.914C77.4936 22.5767 78.1049 22.908 78.8983 22.908C79.6916 22.908 80.3029 22.5767 80.7323 21.914C81.1709 21.2513 81.3903 20.3133 81.3903 19.1C81.3903 17.8867 81.1709 16.9487 80.7323 16.286C80.3029 15.614 79.6916 15.278 78.8983 15.278C78.1049 15.278 77.4936 15.6093 77.0643 16.272C76.6349 16.9347 76.4203 17.8773 76.4203 19.1ZM89.9609 24H83.6329V22.936L87.0909 19.408C88.0149 18.484 88.4769 17.6907 88.4769 17.028C88.4769 16.4867 88.3089 16.062 87.9729 15.754C87.6462 15.4367 87.2356 15.278 86.7409 15.278C85.8169 15.278 85.1449 15.7167 84.7249 16.594L83.6329 15.95C83.9316 15.3247 84.3516 14.8487 84.8929 14.522C85.4342 14.186 86.0456 14.018 86.7269 14.018C87.5576 14.018 88.2716 14.2887 88.8689 14.83C89.4756 15.3807 89.7789 16.1087 89.7789 17.014C89.7789 18.0033 89.1956 19.0813 88.0289 20.248L85.5229 22.74H89.9609V24Z" fill="#777777"/>
<defs>
<filter id="filter0_di_4402_1536" x="63" y="0" width="42" height="42" filterUnits="userSpaceOnUse" color-interpolation-filters="sRGB">
<feFlood flood-opacity="0" result="BackgroundImageFix"/>
<feColorMatrix in="SourceAlpha" type="matrix" values="0 0 0 0 0 0 0 0 0 0 0 0 0 0 0 0 0 0 127 0" result="hardAlpha"/>
<feOffset dx="2" dy="2"/>
<feGaussianBlur stdDeviation="3"/>
<feComposite in2="hardAlpha" operator="out"/>
<feColorMatrix type="matrix" values="0 0 0 0 0 0 0 0 0 0 0 0 0 0 0 0 0 0 0.07 0"/>
<feBlend mode="normal" in2="BackgroundImageFix" result="effect1_dropShadow_4402_1536"/>
<feBlend mode="normal" in="SourceGraphic" in2="effect1_dropShadow_4402_1536" result="shape"/>
<feColorMatrix in="SourceAlpha" type="matrix" values="0 0 0 0 0 0 0 0 0 0 0 0 0 0 0 0 0 0 127 0" result="hardAlpha"/>
<feOffset dx="1" dy="1"/>
<feGaussianBlur stdDeviation="0.5"/>
<feComposite in2="hardAlpha" operator="arithmetic" k2="-1" k3="1"/>
<feColorMatrix type="matrix" values="0 0 0 0 0 0 0 0 0 0 0 0 0 0 0 0 0 0 0.04 0"/>
<feBlend mode="normal" in2="shape" result="effect2_innerShadow_4402_1536"/>
</filter>
<clipPath id="clip0_4402_1536">
<rect width="35" height="50" fill="white" transform="translate(32 33)"/>
</clipPath>
</defs>
</svg>
