<svg width="105" height="108" viewBox="0 0 105 108" fill="none" xmlns="http://www.w3.org/2000/svg">
<circle cx="50" cy="58" r="50" fill="#F5F5F5"/>
<g clip-path="url(#clip0_4402_1537)">
<path d="M52.5279 69.8477V65.1664C52.5279 62.6696 54.5726 60.7192 57.0102 60.7192H68.648V55.5698C68.648 53.6193 67.0753 52.0586 65.1091 52.0586L31.531 52.059C29.5652 52.059 27.9921 53.6193 27.9921 55.5701V79.5223C27.9921 81.4727 29.5648 83.0335 31.531 83.0335H65.1879C67.1538 83.0335 68.7268 81.4731 68.7268 79.5223V74.3729H57.088C54.5716 74.2946 52.5271 72.3442 52.5271 69.8474L52.5279 69.8477Z" fill="#FF9B04"/>
<path d="M70.379 62.2021H57.0896C55.4384 62.2021 54.1799 63.5287 54.1799 65.089V69.7704C54.1799 71.4087 55.5169 72.6573 57.0896 72.6573H70.4578C71.3227 72.6573 72.0305 71.9551 72.0305 71.097V63.685C71.9519 62.9045 71.3227 62.2022 70.3793 62.2022L70.379 62.2021ZM60.3918 70.0825C58.9763 70.0825 57.7967 68.9122 57.7967 67.5078C57.7967 66.1034 58.9763 64.9331 60.3918 64.9331C61.8073 64.9331 62.9868 66.1034 62.9868 67.5078C62.9083 68.9122 61.8073 70.0825 60.3918 70.0825Z" fill="#FF9B04"/>
<path d="M52.0561 34.2702L51.2698 33.6459C50.0117 32.7094 48.2816 32.8657 47.2592 34.1139L34.1264 50.4983H38.8448L52.0561 34.2702Z" fill="#FF9B04"/>
<path d="M45.372 50.499L56.0664 37.391L53.5503 35.3623L41.2822 50.4989L45.372 50.499Z" fill="#FF9B04"/>
<path d="M63.9303 50.4988L65.503 48.4701C66.4469 47.2219 66.2893 45.5053 65.0313 44.4909L57.4822 38.4834L47.8091 50.499L63.9303 50.4988Z" fill="#FF9B04"/>
</g>
<g filter="url(#filter0_di_4402_1537)">
<circle cx="82" cy="19" r="15" fill="white"/>
</g>
<path d="M81.2048 22.796C80.5515 23.72 79.6228 24.182 78.4188 24.182C77.2148 24.182 76.2861 23.72 75.6328 22.796C74.9701 21.8627 74.6388 20.6307 74.6388 19.1C74.6388 17.5693 74.9701 16.3373 75.6328 15.404C76.2861 14.48 77.2148 14.018 78.4188 14.018C79.6228 14.018 80.5515 14.48 81.2048 15.404C81.8675 16.3373 82.1988 17.5693 82.1988 19.1C82.1988 20.6307 81.8675 21.8627 81.2048 22.796ZM75.9408 19.1C75.9408 20.3133 76.1555 21.2513 76.5848 21.914C77.0141 22.5767 77.6255 22.908 78.4188 22.908C79.2121 22.908 79.8235 22.5767 80.2528 21.914C80.6915 21.2513 80.9108 20.3133 80.9108 19.1C80.9108 17.8867 80.6915 16.9487 80.2528 16.286C79.8235 15.614 79.2121 15.278 78.4188 15.278C77.6255 15.278 77.0141 15.6093 76.5848 16.272C76.1555 16.9347 75.9408 17.8773 75.9408 19.1ZM89.051 15.348L86.923 18.218C87.6884 18.358 88.3044 18.6847 88.771 19.198C89.2377 19.7113 89.471 20.346 89.471 21.102C89.471 22.0633 89.1444 22.8147 88.491 23.356C87.8284 23.9067 87.035 24.182 86.111 24.182C85.3457 24.182 84.6784 24.0093 84.109 23.664C83.5397 23.3187 83.1337 22.8287 82.891 22.194L83.983 21.55C84.2724 22.4553 84.9817 22.908 86.111 22.908C86.727 22.908 87.2217 22.7493 87.595 22.432C87.9777 22.1053 88.169 21.662 88.169 21.102C88.169 20.542 87.9777 20.0987 87.595 19.772C87.2217 19.4453 86.727 19.282 86.111 19.282H85.775L85.257 18.484L87.525 15.418H83.171V14.2H89.051V15.348Z" fill="#777777"/>
<defs>
<filter id="filter0_di_4402_1537" x="63" y="0" width="42" height="42" filterUnits="userSpaceOnUse" color-interpolation-filters="sRGB">
<feFlood flood-opacity="0" result="BackgroundImageFix"/>
<feColorMatrix in="SourceAlpha" type="matrix" values="0 0 0 0 0 0 0 0 0 0 0 0 0 0 0 0 0 0 127 0" result="hardAlpha"/>
<feOffset dx="2" dy="2"/>
<feGaussianBlur stdDeviation="3"/>
<feComposite in2="hardAlpha" operator="out"/>
<feColorMatrix type="matrix" values="0 0 0 0 0 0 0 0 0 0 0 0 0 0 0 0 0 0 0.07 0"/>
<feBlend mode="normal" in2="BackgroundImageFix" result="effect1_dropShadow_4402_1537"/>
<feBlend mode="normal" in="SourceGraphic" in2="effect1_dropShadow_4402_1537" result="shape"/>
<feColorMatrix in="SourceAlpha" type="matrix" values="0 0 0 0 0 0 0 0 0 0 0 0 0 0 0 0 0 0 127 0" result="hardAlpha"/>
<feOffset dx="1" dy="1"/>
<feGaussianBlur stdDeviation="0.5"/>
<feComposite in2="hardAlpha" operator="arithmetic" k2="-1" k3="1"/>
<feColorMatrix type="matrix" values="0 0 0 0 0 0 0 0 0 0 0 0 0 0 0 0 0 0 0.04 0"/>
<feBlend mode="normal" in2="shape" result="effect2_innerShadow_4402_1537"/>
</filter>
<clipPath id="clip0_4402_1537">
<rect width="44" height="50" fill="white" transform="translate(28 33)"/>
</clipPath>
</defs>
</svg>
